<?xml version="1.0" encoding="UTF-8"?>
<svg id="Layer_2" data-name="Layer 2" xmlns="http://www.w3.org/2000/svg" viewBox="0 0 2876.16 506.14">
  <defs>
    <style>
      .cls-1 {
        fill: none;
      }

      .cls-2 {
        fill: #231f20;
      }

      .cls-3 {
        fill: #8516cb;
      }
    </style>
  </defs>
  <g id="Layer_1-2" data-name="Layer 1">
    <g>
      <g>
        <path class="cls-2" d="M732.61,146.53c-15.47,0-29.74,2.41-42.81,7.22-13.07,4.81-24.29,11.81-33.65,21-9.36,9.19-16.67,20.53-21.93,34.02-5.26,13.49-7.89,28.91-7.89,46.27s2.4,32.34,7.19,45.39c4.79,13.05,11.68,23.96,20.65,32.71,8.97,8.75,19.92,15.35,32.84,19.8,12.92,4.45,27.57,6.67,43.97,6.67,11.76,0,23.75-.88,35.97-2.63,12.22-1.75,23.67-4.3,34.34-7.66v46.16c-10.83,2.92-22.51,5.21-35.04,6.89-12.53,1.67-25.53,2.52-38.99,2.52-26.3,0-49.43-3.54-69.38-10.61s-36.63-17.06-50.01-29.97c-13.38-12.91-23.44-28.36-30.17-46.38-6.73-18.01-10.09-37.88-10.09-59.61s3.6-43.02,10.79-62.13c7.19-19.1,17.56-35.66,31.1-49.66,13.54-14,30.48-25.01,50.82-33.03,20.34-8.02,43.35-12.1,69.04-12.25,13.15,0,25.6.84,37.36,2.52,11.76,1.68,22.35,4.05,31.79,7.11v45.5c-12.38-3.64-23.9-6.2-34.58-7.66-10.67-1.46-21.12-2.19-31.33-2.19Z"/>
        <path class="cls-2" d="M987.55,279.1v-.88c25.06-6.85,43.59-17.39,55.58-31.61,11.99-14.22,17.98-31.54,17.98-51.96s-4.95-35.77-14.85-48.68c-9.9-12.91-23.98-22.64-42.23-29.21-9.59-3.35-21.12-5.87-34.58-7.55-13.46-1.67-28-2.52-43.63-2.52h-94.45v292.71h56.85v-113.32h38.99l84.47,113.32h68.22l-92.36-120.32ZM949.37,239.61c-9.05,1.09-20.07,1.64-33.07,1.64h-28.08v-89.69h40.61c12.07,0,22.2.55,30.4,1.64,8.2,1.09,15,2.81,20.42,5.14,8.35,3.5,14.27,8.28,17.75,14.33,3.48,6.05,5.22,13.02,5.22,20.89,0,9.19-2.2,17.32-6.61,24.39-4.41,7.08-12.34,12.65-23.79,16.74-6.19,2.19-13.81,3.83-22.86,4.92Z"/>
        <polygon class="cls-2" points="1156.04 354.58 1308.74 354.58 1308.74 399.42 1099.19 399.42 1099.19 106.71 1300.38 106.71 1300.38 151.56 1156.04 151.56 1156.04 227.25 1279.96 227.25 1279.96 272.1 1156.04 272.1 1156.04 354.58"/>
        <path class="cls-2" d="M1600.47,205.71c-4.41-14.22-10.91-27.09-19.49-38.61-8.59-11.52-19.22-21.51-31.91-29.97-12.69-8.46-27.31-15.17-43.86-20.13-5.57-1.75-11.68-3.24-18.33-4.48-6.65-1.24-13.54-2.3-20.65-3.17-7.12-.88-14.43-1.53-21.93-1.97-7.51-.44-14.89-.66-22.16-.66h-82.15v292.71h73.79c20.89,0,39.68-1.17,56.39-3.5,16.71-2.33,31.64-5.83,44.79-10.5,15.78-5.54,29.43-12.65,40.96-21.33,11.52-8.68,21.08-18.7,28.66-30.08,7.58-11.38,13.23-23.96,16.94-37.74,3.71-13.78,5.57-28.55,5.57-44.3,0-16.63-2.2-32.05-6.61-46.27ZM1535.84,307.98c-8.51,14.73-21.04,25.96-37.59,33.69-18.72,8.61-44.71,12.91-77.97,12.91h-23.44v-203.02h25.06c13.46,0,25.6.73,36.43,2.19,10.83,1.46,20.65,3.79,29.47,7,9.43,3.5,17.9,7.95,25.41,13.34,7.5,5.4,13.88,11.85,19.14,19.36,5.26,7.51,9.28,16.08,12.07,25.71,2.78,9.63,4.18,20.42,4.18,32.38,0,22.9-4.26,41.71-12.76,56.44Z"/>
        <path class="cls-2" d="M1768.54,106.71h-51.98l-123.22,292.71h60.57l30.41-74.6h116.93l30.41,74.6h60.1l-123.22-292.71ZM1702.66,279.98l10.61-26.05c8.51-20.56,18.19-46.15,29.05-76.77h.93c10.95,30.44,20.63,56.03,29.05,76.77l10.61,26.05h-80.26Z"/>
        <path class="cls-2" d="M2008.27,166.87c15,20.56,25.53,35.3,31.56,44.19h1.16c8.35-12.25,18.8-26.91,31.33-43.97l44.32-60.38h65.44l-108.14,143.95,112.78,148.76h-64.51l-48.5-65.41c-11.92-16.04-22.9-31.21-32.95-45.5h-.93c-10.52,14.88-21.51,30.05-32.95,45.5l-48.5,65.41h-64.51l112.78-148.76-108.14-143.95h65.44l44.32,60.16Z"/>
        <rect class="cls-2" x="2202.11" y="106.71" width="56.85" height="292.71"/>
        <path class="cls-2" d="M2584.43,191.7c-6.73-18.6-16.56-34.6-29.47-48.02-12.92-13.42-28.78-23.85-47.57-31.28s-40.19-11.16-64.16-11.16-45.37,3.72-64.16,11.16-34.66,17.87-47.57,31.28c-12.92,13.42-22.74,29.42-29.47,48.02-6.73,18.6-10.09,39.05-10.09,61.36s3.36,42.77,10.09,61.36c6.73,18.6,16.55,34.6,29.47,48.02,12.92,13.42,28.78,23.85,47.57,31.28,18.8,7.44,40.18,11.16,64.16,11.16s45.37-3.72,64.16-11.16c18.8-7.44,34.65-17.86,47.57-31.28,12.92-13.42,22.74-29.42,29.47-48.02,6.73-18.6,10.09-39.05,10.09-61.36s-3.36-42.77-10.09-61.36ZM2528.85,299.78c-4.64,13.34-11.06,24.43-19.26,33.25-8.2,8.83-17.95,15.46-29.24,19.91-11.3,4.45-23.67,6.67-37.13,6.67s-25.84-2.22-37.13-6.67c-11.3-4.45-21.04-11.08-29.24-19.91-8.2-8.82-14.62-19.91-19.26-33.25-4.64-13.34-6.96-28.91-6.96-46.71s2.32-33.36,6.96-46.71c4.64-13.34,11.06-24.46,19.26-33.36,8.2-8.89,17.94-15.53,29.24-19.91,11.29-4.38,23.67-6.56,37.13-6.56s25.83,2.19,37.13,6.56c11.29,4.38,21.04,11.01,29.24,19.91,8.2,8.9,14.62,20.02,19.26,33.36,4.64,13.34,6.96,28.91,6.96,46.71s-2.32,33.36-6.96,46.71Z"/>
        <path class="cls-2" d="M2783.8,279.1v-.88c25.06-6.85,43.59-17.39,55.58-31.61,11.99-14.22,17.98-31.54,17.98-51.96s-4.95-35.77-14.85-48.68c-9.9-12.91-23.98-22.64-42.23-29.21-9.59-3.35-21.12-5.87-34.58-7.55-13.46-1.67-28-2.52-43.63-2.52h-94.45v292.71h56.85v-113.32h38.99l84.47,113.32h68.22l-92.36-120.32ZM2745.63,239.61c-9.05,1.09-20.07,1.64-33.07,1.64h-28.08v-89.69h40.61c12.07,0,22.2.55,30.4,1.64,8.2,1.09,15,2.81,20.42,5.14,8.35,3.5,14.27,8.28,17.75,14.33,3.48,6.05,5.22,13.02,5.22,20.89,0,9.19-2.2,17.32-6.61,24.39-4.41,7.08-12.34,12.65-23.79,16.74-6.19,2.19-13.81,3.83-22.86,4.92Z"/>
      </g>
      <g>
        <path class="cls-2" d="M395.03,395.03c-15.71,63.8-73.31,111.11-141.96,111.11s-126.25-47.31-141.96-111.11c11.24,2.77,22.99,4.24,35.09,4.24,42.18,0,80.18-17.86,106.87-46.43,26.69,28.57,64.69,46.43,106.87,46.43,12.1,0,23.85-1.47,35.09-4.24Z"/>
        <path class="cls-2" d="M106.87,359.94c0,12.1,1.47,23.85,4.24,35.09C47.31,379.31,0,321.72,0,253.07S47.31,126.82,111.11,111.11c-2.77,11.24-4.24,22.99-4.24,35.09,0,42.18,17.86,80.18,46.43,106.87-28.57,26.69-46.43,64.69-46.43,106.87Z"/>
        <path class="cls-2" d="M146.2,412.53c-12.38,0-24.71-1.43-36.66-4.24h-8.82l-2.49-10.09c-3.07-12.45-4.62-25.33-4.62-38.26,0-22.48,4.59-44.23,13.64-64.62,8.74-19.7,21.19-37.17,37-51.94l9.05-8.45,9.05,8.45c16.58,15.48,36.91,26.51,58.8,31.9l7.79,1.92,1.92,7.79c5.39,21.89,16.42,42.22,31.9,58.8l8.45,9.05-8.45,9.05c-14.77,15.81-32.24,28.26-51.94,37-20.4,9.05-42.14,13.64-64.62,13.64ZM122.28,383.86c7.86,1.43,15.87,2.15,23.92,2.15,33.26,0,64.35-11.97,88.74-33.93-12.52-15.8-21.97-33.87-27.75-53.13-19.25-5.78-37.32-15.23-53.13-27.75-21.96,24.39-33.93,55.48-33.93,88.74,0,8.05.72,16.06,2.15,23.92Z"/>
        <path class="cls-3" d="M153.3,271.21l-9.05-8.45c-15.81-14.77-28.26-32.24-37-51.94-9.05-20.4-13.64-42.14-13.64-64.62,0-12.94,1.56-25.81,4.63-38.26l1.92-7.78,7.78-1.92c12.45-3.07,25.32-4.63,38.26-4.63,22.48,0,44.23,4.59,64.62,13.64,19.7,8.74,37.17,21.19,51.94,37l8.45,9.05-8.45,9.05c-15.12,16.19-26,35.97-31.52,57.27v8.74l-10.09,2.49c-21.89,5.39-42.22,16.42-58.8,31.9l-9.05,8.45ZM122.28,122.28c-1.43,7.86-2.15,15.87-2.15,23.92,0,33.26,11.97,64.35,33.93,88.74,15.8-12.52,33.87-21.97,53.12-27.75,5.78-19.25,15.23-37.32,27.75-53.13-24.39-21.96-55.48-33.93-88.74-33.93-8.05,0-16.06.72-23.92,2.15Z"/>
        <path class="cls-2" d="M395.03,111.11c-11.24-2.77-22.99-4.24-35.09-4.24-42.18,0-80.18,17.86-106.87,46.43-26.69-28.57-64.69-46.43-106.87-46.43-12.1,0-23.85,1.47-35.09,4.24C126.82,47.31,184.42,0,253.07,0s126.25,47.31,141.96,111.11Z"/>
        <path class="cls-1" d="M213.74,253.07c0,12.1,1.47,23.85,4.24,35.09-24.6-6.06-46.75-18.34-64.68-35.09,17.93-16.74,40.08-29.03,64.68-35.09-2.77,11.24-4.24,22.99-4.24,35.09Z"/>
        <path class="cls-2" d="M153.3,271.21l-9.05-8.45c-15.81-14.77-28.26-32.24-37-51.94-9.05-20.4-13.64-42.14-13.64-64.62,0-12.94,1.56-25.81,4.63-38.26l1.92-7.78,7.78-1.92c12.45-3.07,25.32-4.63,38.26-4.63,22.48,0,44.23,4.59,64.62,13.64,19.7,8.74,37.17,21.19,51.94,37l8.45,9.05-8.45,9.05c-15.12,16.19-26,35.97-31.52,57.27v8.74l-10.09,2.49c-21.89,5.39-42.22,16.42-58.8,31.9l-9.05,8.45ZM122.28,122.28c-1.43,7.86-2.15,15.87-2.15,23.92,0,33.26,11.97,64.35,33.93,88.74,15.8-12.52,33.87-21.97,53.12-27.75,5.78-19.25,15.23-37.32,27.75-53.13-24.39-21.96-55.48-33.93-88.74-33.93-8.05,0-16.06.72-23.92,2.15Z"/>
        <path class="cls-2" d="M506.14,253.07c0,68.65-47.31,126.24-111.11,141.96,2.77-11.24,4.24-22.99,4.24-35.09,0-42.18-17.86-80.18-46.43-106.87,28.57-26.69,46.43-64.69,46.43-106.87,0-12.1-1.47-23.85-4.24-35.09,63.8,15.71,111.11,73.31,111.11,141.96Z"/>
        <path class="cls-2" d="M352.83,271.21l-9.05-8.45c-16.58-15.48-36.91-26.51-58.8-31.9l-10.09-2.48v-8.75c-5.52-21.31-16.4-41.08-31.52-57.27l-8.45-9.05,8.45-9.05c14.77-15.81,32.24-28.26,51.94-37,20.4-9.05,42.14-13.64,64.62-13.64,12.94,0,25.81,1.56,38.26,4.63l7.78,1.92,1.92,7.78c3.07,12.45,4.63,25.32,4.63,38.26,0,22.48-4.59,44.23-13.64,64.62-8.74,19.7-21.19,37.17-37,51.94l-9.05,8.45ZM298.95,207.19c19.25,5.78,37.32,15.23,53.12,27.75,21.96-24.39,33.93-55.48,33.93-88.74,0-8.05-.72-16.06-2.15-23.92-7.86-1.43-15.87-2.15-23.92-2.15-33.26,0-64.35,11.97-88.74,33.93,12.52,15.81,21.97,33.87,27.75,53.13Z"/>
        <path class="cls-2" d="M359.94,412.53c-22.48,0-44.23-4.59-64.62-13.64-19.7-8.74-37.17-21.19-51.94-37l-8.45-9.05,8.45-9.05c15.48-16.58,26.51-36.91,31.9-58.8l1.92-7.79,7.79-1.92c21.89-5.39,42.22-16.42,58.8-31.9l9.05-8.45,9.05,8.45c15.81,14.77,28.26,32.24,37,51.94,9.05,20.4,13.64,42.14,13.64,64.62,0,12.93-1.56,25.8-4.62,38.26l-2.48,10.09h-8.82c-11.95,2.81-24.28,4.24-36.66,4.24ZM271.2,352.07c24.39,21.96,55.48,33.93,88.74,33.93,8.05,0,16.07-.72,23.92-2.15,1.43-7.86,2.15-15.87,2.15-23.92,0-33.26-11.97-64.35-33.93-88.74-15.8,12.52-33.87,21.97-53.13,27.75-5.78,19.25-15.23,37.32-27.75,53.13Z"/>
        <path class="cls-1" d="M288.16,217.98c-11.24-2.77-22.99-4.24-35.09-4.24s-23.85,1.47-35.09,4.24c6.06-24.6,18.34-46.74,35.09-64.67,16.74,17.93,29.03,40.08,35.09,64.67Z"/>
        <path class="cls-2" d="M292.4,253.07c0,12.1-1.47,23.85-4.24,35.09-11.24,2.77-22.99,4.24-35.09,4.24s-23.85-1.47-35.09-4.24c-2.77-11.24-4.24-22.99-4.24-35.09s1.47-23.85,4.24-35.09h0c11.24-2.77,22.99-4.24,35.09-4.24s23.85,1.47,35.09,4.24h0c2.77,11.24,4.24,22.99,4.24,35.09Z"/>
        <path class="cls-1" d="M288.16,288.16c-6.06,24.6-18.34,46.75-35.09,64.68-16.74-17.93-29.03-40.08-35.09-64.68,11.24,2.77,22.99,4.24,35.09,4.24s23.85-1.47,35.09-4.24Z"/>
        <path class="cls-1" d="M288.16,288.16c2.77-11.24,4.24-22.99,4.24-35.09s-1.47-23.85-4.24-35.09c24.6,6.06,46.75,18.34,64.68,35.09-17.93,16.74-40.08,29.03-64.68,35.09Z"/>
      </g>
    </g>
  </g>
</svg>